<?xml version="1.0" encoding="utf-8"?>
<!-- Generator: Adobe Illustrator 24.0.2, SVG Export Plug-In . SVG Version: 6.00 Build 0)  -->
<svg version="1.1" id="Layer_1" xmlns="http://www.w3.org/2000/svg" xmlns:xlink="http://www.w3.org/1999/xlink" x="0px" y="0px"
	 viewBox="0 0 2195 281.6" style="enable-background:new 0 0 2195 281.6;" xml:space="preserve">
<style type="text/css">
	.st0{fill-rule:evenodd;clip-rule:evenodd;fill:#F8C200;}
	.st1{filter:url(#Adobe_OpacityMaskFilter);}
	.st2{fill-rule:evenodd;clip-rule:evenodd;fill:#FFFFFF;}
	.st3{mask:url(#b_1_);fill-rule:evenodd;clip-rule:evenodd;fill:#F8C200;}
	.st4{fill-rule:evenodd;clip-rule:evenodd;fill:#F35D00;}
	.st5{filter:url(#Adobe_OpacityMaskFilter_1_);}
	.st6{mask:url(#d_1_);fill-rule:evenodd;clip-rule:evenodd;fill:#2B2D33;}
</style>
<g transform="translate(0 -1)">
	<path class="st0" d="M513.6,282.7V55.9L191,150.8C305.6,174.9,414.9,219.6,513.6,282.7"/>
	<g transform="translate(0 .66)">
		<defs>
			<filter id="Adobe_OpacityMaskFilter" filterUnits="userSpaceOnUse" x="5.1" y="6" width="418.2" height="221.4">
				<feColorMatrix  type="matrix" values="1 0 0 0 0  0 1 0 0 0  0 0 1 0 0  0 0 0 1 0"/>
			</filter>
		</defs>
		<mask maskUnits="userSpaceOnUse" x="5.1" y="6" width="418.2" height="221.4" id="b_1_">
			<g class="st1">
				<path id="a_1_" class="st2" d="M5.1,6h418.2v221.4H5.1V6z"/>
			</g>
		</mask>
		<path class="st3" d="M416.2,227.5h7.2V6L5.1,129.1v0.2C152.4,131.7,291.7,166.7,416.2,227.5"/>
	</g>
	<path class="st4" d="M191,150.8c0.5,0.1,1,0.2,1.5,0.3c1.4,0.3,2.8,0.6,4.2,0.9c6.7,1.5,13.3,3,19.9,4.5c2.6,0.6,5.1,1.3,7.7,1.9
		c8.3,2,16.5,4.2,24.7,6.5c5.4,1.5,10.8,3,16.1,4.6c2.6,0.8,5.1,1.5,7.7,2.3c6.2,1.9,12.3,3.8,18.5,5.8c1.6,0.5,3.3,1,4.9,1.6
		c7.9,2.6,15.8,5.3,23.6,8.2c0.7,0.3,1.4,0.5,2.1,0.8c7,2.5,13.9,5.2,20.8,7.8c2,0.8,4,1.6,5.9,2.4c13.6,5.4,27.1,11.1,40.5,17.1
		c1.8,0.8,3.6,1.6,5.4,2.4c6.7,3.1,13.4,6.2,20,9.4l1.5,0.7h7.2V82.4L191,150.8z"/>
	<defs>
		<filter id="Adobe_OpacityMaskFilter_1_" filterUnits="userSpaceOnUse" x="631.8" y="117.1" width="1544.1" height="89.9">
			<feColorMatrix  type="matrix" values="1 0 0 0 0  0 1 0 0 0  0 0 1 0 0  0 0 0 1 0"/>
		</filter>
	</defs>
	<mask maskUnits="userSpaceOnUse" x="631.8" y="117.1" width="1544.1" height="89.9" id="d_1_">
		<g class="st5">
			<path id="c_1_" class="st2" d="M5.1,282.7h2170.7V6.7H5.1V282.7z"/>
		</g>
	</mask>
	<path class="st6" d="M631.8,205.8v-87.5h21v87.5H631.8z M719.7,118.3l19.5,60.8l19.5-60.8h27.8v87.5h-21.1v-20.4l2.1-41.8
		l-21.1,62.2h-13.9l-21.2-62.3l2.1,41.9v20.4H692v-87.5C692,118.3,719.7,118.3,719.7,118.3z M845.5,159.8h13.8c4.1,0,7.2-1,9.3-3.1
		c2.1-2.1,3.2-4.9,3.2-8.6c0-4.1-1.1-7.3-3.3-9.8c-2.2-2.4-5.2-3.7-9-3.7h-14.1V159.8L845.5,159.8z M845.5,176.1v29.7h-21.1v-87.5
		h34.9c6.7,0,12.6,1.2,17.7,3.7c4.9,2.3,9.1,5.9,11.9,10.5c2.8,4.6,4.2,9.7,4.2,15.5c0,8.5-3.1,15.3-9.2,20.5
		c-6.1,5.1-14.5,7.7-25.1,7.7L845.5,176.1L845.5,176.1z M983.4,168.7h-33.2v20.9h39.2v16.2h-60.2v-87.4h60.4v16.3h-39.3v18.4h33.2
		C983.4,153.1,983.4,168.7,983.4,168.7z M1043.6,158.6h13.3c4,0,7-1,9-3.2c2-2.1,3-5.1,3-8.8c0-3.8-1-6.7-3.1-8.9
		c-2-2.1-5.1-3.2-9-3.2h-13.3C1043.6,134.6,1043.6,158.6,1043.6,158.6z M1055.1,174.9h-11.4v30.9h-21.1v-87.5h34.4
		c10.4,0,18.5,2.3,24.3,6.9c5.8,4.6,8.8,11.1,8.8,19.5c0,6.1-1.2,11.1-3.7,15.1c-2.5,4-6.3,7.2-11.6,9.7l18.3,35.3v0.9h-22.6
		L1055.1,174.9L1055.1,174.9z M1128.9,205.8v-87.5h21v87.5H1128.9z M1257.7,118.3v57.2c0,6.5-1.4,12.1-4.1,16.8
		c-2.8,4.7-6.9,8.5-11.9,10.8c-5.2,2.5-11.3,3.7-18.3,3.7c-10.7,0-19-2.8-25.2-8.3c-6.1-5.5-9.3-13.1-9.4-22.7v-57.7h21.2v58.1
		c0.2,9.6,4.7,14.4,13.3,14.4c4.4,0,7.7-1.2,9.9-3.6c2.2-2.4,3.4-6.3,3.4-11.7v-57.1C1236.6,118.3,1257.7,118.3,1257.7,118.3z
		 M1323.2,118.3l19.5,60.8l19.5-60.8h27.8v87.5h-21.1v-20.4l2-41.8l-21.1,62.2h-13.9l-21.2-62.3l2,41.9v20.4h-21.1v-87.5
		L1323.2,118.3L1323.2,118.3z M1497.4,118.3l32.3,77.2l32.4-77.2h9.8v87.5h-7.4v-38.1l0.6-39l-32.5,77.1h-5.7l-32.4-76.8l0.6,38.5
		v38.3h-7.4v-87.5L1497.4,118.3L1497.4,118.3z M1629.5,175h35.1l-17.5-47.6L1629.5,175z M1666.9,181.2h-39.7l-9,24.6h-7.7l33.1-87.5
		h7l33.1,87.5h-7.7L1666.9,181.2L1666.9,181.2z M1728.4,163.1h22.6c6.2,0,11.2-1.8,15-5.3c3.8-3.5,5.6-8.1,5.6-13.7
		c0-6.2-2-11-5.9-14.4c-3.9-3.4-9.4-5.1-16.5-5.1h-20.8V163.1z M1753.8,169.3h-25.4v36.5h-7.4v-87.5h28.4c9.3,0,16.6,2.3,21.9,6.8
		c5.2,4.5,7.9,10.8,7.9,19c0.1,5.4-1.7,10.6-4.9,14.8c-3.3,4.3-7.7,7.2-13.2,8.9l21.9,37.2v0.8h-7.9
		C1774.9,205.8,1753.8,169.3,1753.8,169.3z M1843.5,162.4l-12.3,12.1v31.3h-7.4v-87.5h7.4v47.2l44.8-47.2h9.3l-36.6,38.9l39.5,48.5
		h-9L1843.5,162.4L1843.5,162.4z M1974.3,163.9h-40.9v35.7h47v6.2H1926v-87.5h54.1v6.2h-46.7v33h40.9L1974.3,163.9L1974.3,163.9z
		 M2081.1,124.6h-30v81.2h-7.4v-81.2h-29.9v-6.2h67.3V124.6L2081.1,124.6z M2168.4,184.3c0-4.8-1.7-8.7-5.1-11.5
		c-3.4-2.8-9.6-5.5-18.7-8.1c-9.1-2.5-15.7-5.3-19.8-8.3c-5.9-4.2-8.9-9.8-8.9-16.7c0-6.7,2.7-12.1,8.3-16.3
		c5.5-4.2,12.5-6.3,21.1-6.3c5.8,0,11,1.1,15.6,3.4c4.4,2.1,8.1,5.3,10.7,9.4c2.5,4,3.8,8.7,3.8,13.4h-7.4c0-6-2.1-10.8-6.1-14.4
		c-4.1-3.6-9.6-5.5-16.5-5.5c-6.7,0-12,1.5-16,4.5c-4,3-5.9,6.9-5.9,11.7c0,4.5,1.8,8.1,5.3,10.9c3.6,2.8,9.3,5.3,17.1,7.4
		c7.8,2.1,13.8,4.4,17.8,6.7c4.1,2.3,7.1,5.1,9.1,8.3c2,3.2,3.1,7,3.1,11.3c0,6.9-2.8,12.4-8.3,16.6c-5.5,4.2-12.8,6.2-21.8,6.2
		c-5.8,0.1-11.6-1.1-17-3.3c-5.1-2.2-9-5.3-11.7-9.3c-2.7-4-4.1-8.8-4-13.6h7.4c0,6.2,2.3,11,6.9,14.6c4.6,3.6,10.7,5.3,18.4,5.3
		c6.8,0,12.3-1.5,16.4-4.5C2166.3,193.2,2168.4,189.3,2168.4,184.3z"/>
</g>
</svg>
